<svg xmlns="http://www.w3.org/2000/svg" width="24" height="27" viewBox="0 0 24 27"><path fill="#FFF" fill-rule="evenodd" d="M20.942 0c1.475 0 2.686 1.162 2.786 2.621l.006.17V27l-2.928-2.546-1.64-1.511-1.735-1.607.719 2.492H2.779c-1.475 0-2.686-1.162-2.774-2.622L0 21.036V2.791C0 1.31 1.156.093 2.61.005L2.779 0h18.163zm-6.839 6.304h-.006l-.19.218c2.304.694 3.375 1.716 3.375 1.716-1.41-.763-2.792-1.144-4.08-1.294-.976-.109-1.91-.082-2.738.027-.081 0-.149.014-.23.027-.475.055-1.627.218-3.077.858-.502.218-.8.382-.8.382s1.034-1 3.295-1.695l.256-.076-.135-.163S7.93 6.264 5.978 7.72c0 0-.027.048-.073.139l-.066.13c-.445.9-1.813 3.965-1.813 7.601 0 0 1.138 1.96 4.134 2.056l.025-.03.12-.144.182-.221c.172-.21.387-.475.581-.721-1.721-.518-2.372-1.594-2.372-1.594s.136.096.38.232c.009 0 .018.006.03.014l.024.013.122.068c.339.19.678.34.99.463.555.232 1.22.436 1.992.586 1.016.19 2.21.258 3.51.013.638-.122 1.288-.3 1.966-.585.474-.177 1.003-.436 1.559-.804 0 0-.678 1.103-2.454 1.607.407.504.895 1.09.895 1.09 2.995-.096 4.134-2.057 4.134-2.043 0-3.636-1.368-6.7-1.813-7.601l-.066-.13c-.046-.091-.073-.139-.073-.139-1.874-1.408-3.671-1.417-3.789-1.416zm.077 5.064c.74 0 1.35.739 1.35 1.658 0 .92-.596 1.658-1.35 1.658-.741 0-1.35-.738-1.35-1.658 0-.92.595-1.658 1.35-1.658zm-4.83 0c.754 0 1.363.739 1.35 1.658 0 .92-.596 1.658-1.35 1.658-.741 0-1.35-.738-1.35-1.658 0-.92.595-1.658 1.35-1.658z"/></svg>