<svg xmlns="http://www.w3.org/2000/svg" width="76" height="36" viewBox="0 0 76 36"><g fill="none" fill-rule="evenodd"><g fill="#FFF" fill-rule="nonzero"><g><path d="M31.882 25.048c.356 0 .697.048 1.023.144.326.097.612.293.858.588l-.72.642c-.11-.168-.267-.304-.47-.407-.203-.102-.433-.153-.691-.153-.246 0-.452.033-.618.1-.16.06-.29.14-.388.243-.098.097-.169.202-.212.317-.037.115-.055.22-.055.317 0 .27.08.479.24.624.16.144.356.262.59.352.24.09.498.172.775.245.282.072.54.174.774.307.24.127.44.302.6.525.16.217.24.518.24.904 0 .308-.062.585-.185.832-.117.247-.276.456-.48.624-.202.17-.442.299-.719.39-.277.09-.572.135-.885.135-.418 0-.815-.072-1.19-.217-.375-.145-.673-.368-.895-.67l.729-.614c.16.235.363.41.609.524.252.109.51.163.774.163.148 0 .299-.021.452-.063.154-.049.292-.118.415-.208.13-.09.234-.202.314-.335.08-.133.12-.287.12-.461 0-.248-.08-.434-.24-.561-.16-.133-.36-.241-.6-.326-.233-.09-.491-.175-.774-.253-.277-.084-.535-.199-.775-.344-.234-.144-.43-.337-.59-.579-.16-.247-.24-.578-.24-.994 0-.187.04-.386.12-.597.086-.211.218-.404.396-.58.179-.174.406-.319.683-.433.283-.121.621-.181 1.015-.181zm33.083 0c.603 0 1.095.075 1.476.226.381.145.701.347.96.606l-.628.66c-.27-.253-.556-.428-.858-.525-.301-.102-.618-.153-.95-.153-.375 0-.713.07-1.014.208-.302.132-.56.313-.775.542-.215.23-.381.5-.498.814-.117.308-.176.637-.176.986 0 .362.065.7.194 1.013.13.308.308.576.535.805.228.23.495.41.803.543.307.127.642.19 1.005.19.314 0 .609-.027.885-.082.283-.06.523-.144.72-.253v-1.782h-1.448v-.814h2.333v3.157c-.16.096-.34.18-.544.253-.202.073-.415.133-.636.181-.215.054-.437.094-.664.118-.222.024-.43.036-.628.036-.553 0-1.048-.09-1.485-.271-.43-.181-.796-.426-1.097-.733-.295-.308-.523-.663-.683-1.067-.153-.41-.23-.841-.23-1.294 0-.476.083-.92.249-1.33.172-.41.406-.765.7-1.067.302-.301.662-.536 1.08-.705.418-.175.876-.262 1.374-.262zm-9.176.163l3.597 5.263h.018v-5.263h.886v6.403h-1.126L55.53 26.35h-.018v5.264h-.886v-6.403h1.163zm-2.844 0v6.403h-.886v-6.403h.886zm-5.981 0v2.767h.074l2.887-2.767h1.236l-3.155 2.957 3.367 3.446H50.08l-3.043-3.202h-.074v3.202h-.885v-6.403h.885zm-4.53 0l2.795 6.403h-1.033l-.655-1.583h-3.108l-.646 1.583h-1.033l2.878-6.403h.802zm-2.946 0v.814h-2.103v5.59h-.886v-5.59h-2.102v-.814h5.09zM42 26.332h-.019l-1.236 2.94h2.472l-1.217-2.94zM10.469 0c.324 0 .648.083.94.248l2.864 1.653-1.902 1.097-.951-.548-.476-.275c-.294-.17-.656-.17-.95 0l-.474.274-4.756 2.744-.475.274c-.212.122-.212.427 0 .549l.475.274 6.653 3.838.954.55v9.327c0 .244.264.396.475.274l.476-.274 4.754-2.743.475-.274c.295-.17.476-.484.476-.823v-1.646l1.901-1.097v3.291c0 .677-.36 1.303-.945 1.643l-8.566 4.942c-.293.17-.62.254-.948.254V11.776l-.95-.549L.264 5.888c.162-.28.396-.52.685-.69L9.532.249l.051-.029C9.86.073 10.165 0 10.47 0zM.01 6.838l1.902 1.098v8.229c0 .325.166.626.438.8l.038.023.475.274 6.656 3.84v2.195L.961 18.359l-.003-.001C.372 18.02.01 17.397.01 16.72V6.838zm53.474 1.686c.784 0 1.517.144 2.197.432.68.288 1.272.684 1.775 1.186.503.503.899 1.087 1.187 1.752.288.665.433 1.382.433 2.151 0 .769-.145 1.49-.433 2.162-.288.673-.684 1.257-1.187 1.752-.503.495-1.095.887-1.775 1.175-.68.288-1.413.433-2.197.433s-1.516-.145-2.196-.433c-.681-.288-1.273-.68-1.776-1.175-.503-.495-.898-1.08-1.187-1.752-.288-.673-.433-1.393-.433-2.162 0-.769.145-1.486.433-2.15.289-.666.684-1.25 1.187-1.753.503-.502 1.095-.898 1.776-1.186.68-.288 1.412-.432 2.196-.432zm9.36.266c.062 0 .12.03.154.08l2.342 3.42c.058.084.174.106.258.048.02-.013.036-.03.05-.05l2.299-3.416c.034-.052.092-.082.154-.082h1.953c.103 0 .186.083.186.185 0 .04-.012.078-.036.11l-3.215 4.382c-.097.132-.095.313.004.444l3.867 5.092c.062.081.046.198-.036.26-.032.024-.071.037-.111.037h-2.104c-.06 0-.117-.029-.152-.078l-2.9-4.119c-.058-.084-.174-.104-.258-.045-.018.013-.032.028-.045.045l-2.9 4.119c-.034.05-.09.078-.15.078h-1.994c-.102 0-.185-.083-.185-.185 0-.04.013-.08.037-.112l3.864-5.088c.101-.133.1-.316 0-.449l-3.33-4.379c-.063-.081-.047-.198.035-.26.032-.024.072-.037.112-.037h2.102zM45.23 2.536c.102 0 .185.083.185.186v16.393c0 .102-.083.185-.185.185h-1.626c-.102 0-.186-.083-.186-.185V2.722c0-.103.084-.186.186-.186h1.626zm-9.977 1.065c.68 0 1.312.081 1.897.244.584.162 1.087.403 1.509.72.421.318.754.725.998 1.22s.366 1.075.366 1.74c0 .902-.251 1.638-.754 2.207-.503.57-1.154.987-1.953 1.253v.044c.474.03.917.152 1.332.366.414.215.773.495 1.076.843.303.347.543.75.72 1.208.178.459.267.954.267 1.486 0 .71-.144 1.334-.433 1.874-.288.54-.684.994-1.187 1.364-.503.37-1.087.65-1.753.842-.665.192-1.383.288-2.152.288h-4.65c-.41 0-.742-.332-.742-.741V4.343c0-.41.332-.742.742-.742h4.717zm18.231 6.785c-.532 0-1.013.093-1.442.277-.43.185-.791.436-1.087.754-.296.318-.526.703-.688 1.153-.163.451-.244.943-.244 1.475 0 .532.081 1.024.244 1.475.162.45.392.835.688 1.153.296.318.658.569 1.087.754.429.184.91.277 1.442.277.533 0 1.014-.093 1.442-.277.43-.185.792-.436 1.088-.754.296-.318.525-.702.687-1.153.163-.451.245-.943.245-1.475 0-.532-.082-1.024-.245-1.475-.162-.45-.391-.835-.687-1.153-.296-.318-.659-.569-1.088-.754-.428-.184-.91-.277-1.442-.277zm-18.409 1.597h-2.78c-.205 0-.37.166-.37.37v4.714c0 .205.165.37.37.37h2.758c.325 0 .684-.032 1.076-.099s.758-.2 1.098-.4c.34-.199.63-.469.866-.809.236-.34.355-.79.355-1.352 0-.932-.303-1.63-.91-2.096-.606-.465-1.427-.698-2.463-.698zM15.224 2.45l4.758 2.745.047.028c.557.345.898.954.9 1.61v5.492l-1.902 1.097V7.936c0-.66-.342-1.27-.9-1.616l-.051-.03-4.754-2.743 1.901-1.097zm20.05 3.013h-2.98c-.205 0-.37.167-.37.371V9.75c0 .205.165.371.37.371h2.536c.4 0 .777-.04 1.132-.122.355-.081.665-.218.932-.41.266-.192.477-.436.632-.732.155-.295.233-.658.233-1.086 0-.621-.2-1.16-.6-1.62-.399-.457-1.027-.687-1.885-.687z" transform="translate(-36 -17) translate(36 17)"/></g></g></g></svg>