<svg xmlns="http://www.w3.org/2000/svg" xmlns:xlink="http://www.w3.org/1999/xlink" width="125" height="30" viewBox="0 0 125 30"><defs><path id="rmtqjhzulc" d="M0 0H142V19H0z"/><path id="tyeenv5ire" d="M0 0H84V28H0z"/><path id="5yc432sjlg" d="M0 0H84V16H0z"/><path id="85ba51zv0i" d="M0 0H880V574H0z"/><path id="xfzjwizugl" d="M48 40h784c4.418 0 8 3.582 8 8v478c0 4.418-3.582 8-8 8H48c-4.418 0-8-3.582-8-8V48c0-4.418 3.582-8 8-8z"/><filter id="9ozyia2ipk" width="110.5%" height="117%" x="-5.2%" y="-6.1%" filterUnits="objectBoundingBox"><feOffset dy="12" in="SourceAlpha" result="shadowOffsetOuter1"/><feGaussianBlur in="shadowOffsetOuter1" result="shadowBlurOuter1" stdDeviation="12"/><feColorMatrix in="shadowBlurOuter1" values="0 0 0 0 0.282352941 0 0 0 0 0.298039216 0 0 0 0 0.321568627 0 0 0 0.3 0"/></filter><rect id="5syaczyz6a" width="1170" height="755" x="0" y="0" rx="5"/></defs><g fill="none" fill-rule="evenodd"><g><path fill="#A6AAB1" d="M0 0H1360V768H0z" transform="translate(-346 -300)"/><g transform="translate(-346 -300) translate(95 7)"><mask id="1q9uuszztb" fill="#fff"><use xlink:href="#5syaczyz6a"/></mask><use fill="#F2F7FF" fill-rule="nonzero" xlink:href="#5syaczyz6a"/><g mask="url(#1q9uuszztb)"><g><g><g stroke="#C3C8CF"><path d="M5.128.5h171.744c1.642 0 2.244.153 2.846.475.563.301 1.006.744 1.307 1.307.322.602.475 1.204.475 2.846h0v21.744c0 1.642-.153 2.244-.475 2.846-.301.563-.744 1.006-1.307 1.307-.602.322-1.204.475-2.846.475h0H5.128c-1.642 0-2.244-.153-2.846-.475-.563-.301-1.006-.744-1.307-1.307C.653 29.116.5 28.514.5 26.872h0V5.128c0-1.642.153-2.244.475-2.846.301-.563.744-1.006 1.307-1.307C2.884.653 3.486.5 5.128.5h0z" transform="translate(115 298)"/></g><g transform="translate(115 298) translate(20 6)"><mask id="qpljabyold" fill="#fff"><use xlink:href="#rmtqjhzulc"/></mask><text fill="#2536B8" font-family="Avenir-Heavy, Avenir" font-size="14" font-weight="600" mask="url(#qpljabyold)"><tspan x="20.705" y="12">Connect Wallet</tspan></text></g></g><g transform="translate(115 298) translate(198 2)"><mask id="2v8ezw869f" fill="#fff"><use xlink:href="#tyeenv5ire"/></mask><g mask="url(#2v8ezw869f)"><g transform="translate(0 6)"><mask id="wtq7xmn0vh" fill="#fff"><use xlink:href="#5yc432sjlg"/></mask><text font-family="Avenir-Heavy, Avenir" font-size="12" font-weight="600" mask="url(#wtq7xmn0vh)"><tspan x="1.782" y="10" fill="#2536B8">Need GoETH?</tspan></text></g></g></g></g></g><path fill="#484C52" fill-opacity=".6" d="M-95 80H1265V767H-95z" mask="url(#1q9uuszztb)" style="mix-blend-mode:multiply"/><g mask="url(#1q9uuszztb)"><g><g transform="translate(145 132)"><mask id="nvklk0erkj" fill="#fff"><use xlink:href="#85ba51zv0i"/></mask><g mask="url(#nvklk0erkj)"><use fill="#000" filter="url(#9ozyia2ipk)" xlink:href="#xfzjwizugl"/><use fill="#FFF" xlink:href="#xfzjwizugl"/></g></g><g fill="#000" fill-rule="nonzero"><g><path d="M33.16 9.188h13.223v3.755h-4.475v12.248h-4.25V12.943H33.16V9.188zm28.454 5.323c0 2.653-1.572 4.156-3.127 4.743l3.578 5.936H57.19l-3.021-5.4h-1.642v5.4H48.3V9.186h7.673c3.375 0 5.64 2.14 5.64 5.325zm-9.086-1.636v3.227h2.961c1.095 0 1.832-.65 1.832-1.615 0-.964-.737-1.612-1.832-1.612h-2.961zM63.573 25.19V9.187h11.839v3.688h-7.613v2.345h7.452v3.688h-7.452v2.571h7.613v3.711h-11.84zM90.01 12.38l-6.802 9.055h6.802v3.756H77.504v-3.217l6.8-9.032h-6.8V9.188H90.01v3.193zm9.183-3.443c4.94 0 8.526 3.476 8.526 8.262 0 4.788-3.585 8.262-8.526 8.262-4.927 0-8.502-3.474-8.502-8.262 0-4.786 3.575-8.262 8.502-8.262zm0 12.745c2.478 0 4.208-1.843 4.208-4.483 0-2.639-1.73-4.483-4.208-4.483-2.503 0-4.185 1.802-4.185 4.483 0 2.64 1.721 4.483 4.185 4.483zm20.442-2.428l3.578 5.936h-4.873l-3.021-5.4h-1.643v5.4h-4.227V9.186h7.673c3.376 0 5.643 2.14 5.643 5.325 0 2.653-1.574 4.156-3.13 4.743zm-5.96-6.38v3.228h2.963c1.095 0 1.832-.65 1.832-1.615 0-.964-.737-1.612-1.832-1.612h-2.962zM21.559 9.217h3.082v15.972h-.02L14.105 30 3.593 25.188H3.57V9.216h3.084V6.974C6.655 3.129 9.999 0 14.108 0c4.107 0 7.45 3.129 7.45 6.974v2.242zM20.4 22.531v-9.567H7.811v9.567l6.295 2.875L20.4 22.53zM10.477 6.974v2.242h7.259V6.974c0-1.78-1.629-3.228-3.628-3.228-2.002 0-3.63 1.448-3.63 3.228z" transform="translate(145 132) translate(106 155) translate(0 6)"/></g></g></g></g></g></g></g></svg>