<svg xmlns="http://www.w3.org/2000/svg" xmlns:xlink="http://www.w3.org/1999/xlink" width="125" height="30" viewBox="0 0 125 30">
    <defs>
        <path id="zlrqlacfla" d="M0 30.004L123.571 30.004 123.571 0 0 0z"/>
    </defs>
    <g fill="none" fill-rule="evenodd">
        <g>
            <g>
                <g>
                    <g>
                        <g transform="translate(-346 -300) translate(95 7) translate(145 132) translate(106 155) translate(0 6)">
                            <path fill="#0F2534" d="M21.346 0H9.703v15.528h15.713V4.021c0-2.226-1.816-4.02-4.07-4.02M6.072 0H4.07C1.815 0 0 1.796 0 4.02V6h6.071V0z"/>
                            <mask id="y9fnl1an0b" fill="#fff">
                                <use xlink:href="#zlrqlacfla"/>
                            </mask>
                            <path fill="#0F2534" d="M0 15.59L6.071 15.59 6.071 9.59 0 9.59zM19.406 25.117h2.004c2.253 0 4.067-1.795 4.067-4.022v-1.917h-6.07v5.939zM9.704 25.177L15.775 25.177 15.775 19.177 9.704 19.177zM0 19.178v1.98c0 2.227 1.816 4.02 4.068 4.02h2.004v-6H0zM40.94 1.608L38.562 1.608 38.562 23.57 51.144 23.57 51.144 21.467 40.94 21.467zM53.398 13.981c.5-2.785 2.566-4.578 5.258-4.578 2.002 0 4.193 1.176 4.38 4.578h-9.639zm5.383-6.558c-4.632 0-7.887 3.403-7.887 8.29v.557c.062 2.103 1.002 4.083 2.566 5.568 1.502 1.36 3.443 2.165 5.509 2.165h.312c2.191 0 4.258-.805 5.884-2.165l.063-.062-1.063-1.731-.126.061c-1.315 1.176-2.942 1.855-4.693 1.855-2.88 0-5.823-1.855-6.011-6h12.02v-.123s.062-.743.062-1.114c0-4.456-2.63-7.3-6.636-7.3zM74.306 21.838c-2.942 0-4.883-2.474-4.883-6.187 0-3.588 2.066-6.124 4.945-6.124 2.441 0 4.884 1.917 4.884 6.124 0 4.577-2.566 6.187-4.946 6.187zM79.188 9.28v.803c-1-1.67-2.879-2.721-4.82-2.721h-.187c-4.258 0-7.2 3.34-7.2 8.227 0 4.95 2.817 8.29 7.012 8.29 3.318 0 4.82-1.98 5.321-2.846v2.414h2.252V1.61h-2.314V9.28h-.064zM90.645 21.404c-3.068 0-5.072-2.35-5.072-6 0-3.71 1.754-5.814 4.76-5.814 3.317 0 4.881 1.916 4.881 5.814.063 3.835-1.564 6-4.57 6zM95.277 9.59v.123c-.438-.743-1.816-2.352-5.134-2.352-4.193 0-6.948 3.157-6.948 7.982 0 4.824 2.88 8.103 7.137 8.103 2.316 0 3.88-.804 4.945-2.474v2.165c0 3.032-1.941 4.763-5.384 4.763-1.44 0-2.941-.37-4.257-1.051l-.125-.062-.877 1.918.127.062c1.627.803 3.443 1.237 5.194 1.237 3.695 0 7.638-1.857 7.638-6.99V7.795h-2.316V9.59zM101.724 13.981c.502-2.785 2.566-4.578 5.26-4.578 2.001 0 4.192 1.176 4.381 4.578h-9.64zm5.322-6.558c-4.632 0-7.825 3.403-7.825 8.227v.558c.062 2.104 1.001 4.084 2.566 5.568 1.502 1.36 3.443 2.165 5.509 2.165h.312c2.191 0 4.257-.805 5.886-2.165l.06-.062-1.124-1.733-.127.064c-1.314 1.175-2.941 1.854-4.695 1.854-2.878 0-5.821-1.854-6.009-6h12.082v-.123s.063-.743.063-1.114c0-4.394-2.63-7.239-6.698-7.239zM123.51 7.733c-.313-.062-.563-.062-.877-.123-2.191 0-4.006 1.36-4.945 3.649V7.733h-2.318l.064 15.651v.124h2.379v-6.62c0-.99.125-2.041.438-2.97.751-2.412 2.44-3.958 4.444-3.958.252 0 .502 0 .752.062h.125V7.733h-.063z" mask="url(#y9fnl1an0b)"/>
                        </g>
                    </g>
                </g>
            </g>
        </g>
    </g>
</svg>
