<svg xmlns="http://www.w3.org/2000/svg" width="24" height="24" viewBox="0 0 24 24">
    <g fill="none" fill-rule="evenodd" stroke-linecap="round" stroke-linejoin="round">
        <g fill-rule="nonzero" stroke-width=".5">
            <g>
                <g>
                    <g>
                        <g>
                            <g>
                                <g>
                                    <path fill="#E17726" stroke="#E17726" d="M15.791 0L9.301 4.802 10.508 1.972z" transform="translate(-222 -396) translate(95 7) translate(115 184) translate(0 145) translate(0 12) translate(12 48) translate(3.53 4.235)"/>
                                    <path fill="#E27625" stroke="#E27625" d="M.822 0L7.254 4.847 6.105 1.972zM13.454 11.134L11.728 13.772 15.425 14.79 16.484 11.192zM.135 11.192L1.187 14.79 4.879 13.772 3.158 11.134z" transform="translate(-222 -396) translate(95 7) translate(115 184) translate(0 145) translate(0 12) translate(12 48) translate(3.53 4.235)"/>
                                    <path fill="#E27625" stroke="#E27625" d="M4.679 6.678L3.652 8.227 7.311 8.394 7.189 4.456zM11.933 6.678L9.385 4.411 9.301 8.394 12.96 8.227zM4.879 13.772L7.093 12.703 5.187 11.217zM9.52 12.703L11.728 13.772 11.426 11.217z" transform="translate(-222 -396) translate(95 7) translate(115 184) translate(0 145) translate(0 12) translate(12 48) translate(3.53 4.235)"/>
                                    <path fill="#D5BFB2" stroke="#D5BFB2" d="M11.728 13.772L9.52 12.703 9.699 14.137 9.68 14.745zM4.879 13.772L6.933 14.745 6.92 14.137 7.093 12.703z" transform="translate(-222 -396) translate(95 7) translate(115 184) translate(0 145) translate(0 12) translate(12 48) translate(3.53 4.235)"/>
                                    <path fill="#233447" stroke="#233447" d="M6.971 10.27L5.135 9.732 6.432 9.137zM9.642 10.27L10.181 9.137 11.484 9.732z" transform="translate(-222 -396) translate(95 7) translate(115 184) translate(0 145) translate(0 12) translate(12 48) translate(3.53 4.235)"/>
                                    <path fill="#CC6228" stroke="#CC6228" d="M4.879 13.772L5.2 11.134 3.158 11.192zM11.413 11.134L11.728 13.772 13.454 11.192zM12.96 8.227L9.301 8.394 9.641 10.27 10.181 9.137 11.484 9.732zM5.135 9.732L6.432 9.137 6.971 10.27 7.311 8.394 3.652 8.227z" transform="translate(-222 -396) translate(95 7) translate(115 184) translate(0 145) translate(0 12) translate(12 48) translate(3.53 4.235)"/>
                                    <path fill="#E27525" stroke="#E27525" d="M3.653 8.227L5.187 11.217 5.135 9.732zM11.484 9.732L11.426 11.217 12.96 8.227zM7.312 8.394L6.971 10.27 7.401 12.485 7.498 9.566zM9.301 8.394L9.122 9.559 9.211 12.485 9.642 10.27z" transform="translate(-222 -396) translate(95 7) translate(115 184) translate(0 145) translate(0 12) translate(12 48) translate(3.53 4.235)"/>
                                    <path fill="#F5841F" stroke="#F5841F" d="M9.642 10.27L9.211 12.485 9.52 12.703 11.426 11.217 11.484 9.732zM5.135 9.732L5.187 11.217 7.093 12.703 7.401 12.485 6.971 10.27z" transform="translate(-222 -396) translate(95 7) translate(115 184) translate(0 145) translate(0 12) translate(12 48) translate(3.53 4.235)"/>
                                    <path fill="#C0AC9D" stroke="#C0AC9D" d="M9.68 14.745L9.699 14.137 9.532 13.996 7.08 13.996 6.92 14.137 6.933 14.745 4.879 13.772 5.598 14.361 7.055 15.366 9.552 15.366 11.015 14.361 11.728 13.772z" transform="translate(-222 -396) translate(95 7) translate(115 184) translate(0 145) translate(0 12) translate(12 48) translate(3.53 4.235)"/>
                                    <path fill="#161616" stroke="#161616" d="M9.52 12.703L9.211 12.485 7.401 12.485 7.093 12.703 6.92 14.137 7.08 13.996 9.532 13.996 9.699 14.137z" transform="translate(-222 -396) translate(95 7) translate(115 184) translate(0 145) translate(0 12) translate(12 48) translate(3.53 4.235)"/>
                                    <path fill="#763E1A" stroke="#763E1A" d="M16.067 5.116L16.613 2.465 15.791 0 9.52 4.642 11.933 6.678 15.342 7.67 16.093 6.793 15.765 6.556 16.285 6.083 15.887 5.775 16.407 5.378zM0 2.465L.552 5.116.199 5.378.725 5.775.327 6.083.847 6.556.52 6.793 1.271 7.67 4.68 6.678 7.093 4.642.822 0z" transform="translate(-222 -396) translate(95 7) translate(115 184) translate(0 145) translate(0 12) translate(12 48) translate(3.53 4.235)"/>
                                    <path fill="#F5841F" stroke="#F5841F" d="M15.342 7.67L11.933 6.678 12.96 8.227 11.426 11.217 13.455 11.192 16.484 11.192zM4.679 6.678L1.271 7.67.135 11.192 3.158 11.192 5.187 11.217 3.652 8.227zM9.301 8.394L9.52 4.642 10.508 1.972 6.105 1.972 7.093 4.642 7.311 8.394 7.395 9.572 7.401 12.485 9.211 12.485 9.218 9.572z" transform="translate(-222 -396) translate(95 7) translate(115 184) translate(0 145) translate(0 12) translate(12 48) translate(3.53 4.235)"/>
                                </g>
                            </g>
                        </g>
                    </g>
                </g>
            </g>
        </g>
    </g>
</svg>
