<svg xmlns="http://www.w3.org/2000/svg" xmlns:xlink="http://www.w3.org/1999/xlink" width="92" height="200" viewBox="0 0 92 200"><defs><linearGradient id="cf1longfta" x1="29.694%" x2="73.355%" y1="29.125%" y2="63.084%"><stop offset="0%" stop-color="#4CAF50"/><stop offset="48.9%" stop-color="#4AAF50"/><stop offset="66.5%" stop-color="#43AD50"/><stop offset="79%" stop-color="#38AA50"/><stop offset="89.2%" stop-color="#27A550"/><stop offset="97.8%" stop-color="#11A050"/><stop offset="100%" stop-color="#0A9E50"/></linearGradient><linearGradient id="nrp6rcqk0b" x1="50%" x2="50%" y1="100%" y2="28.008%"><stop offset="0%" stop-color="#FFD747"/><stop offset="48.2%" stop-color="#FFD645"/><stop offset="65.5%" stop-color="#FED43E"/><stop offset="77.9%" stop-color="#FCCF33"/><stop offset="87.9%" stop-color="#FAC922"/><stop offset="96.4%" stop-color="#F7C10C"/><stop offset="100%" stop-color="#F5BC00"/></linearGradient><linearGradient id="6dig9912pc" x1="83.539%" x2="12.778%" y1="29.235%" y2="59.982%"><stop offset="0%" stop-color="#F7572F"/><stop offset="52.3%" stop-color="#F7552D"/><stop offset="71.2%" stop-color="#F75026"/><stop offset="84.6%" stop-color="#F7461B"/><stop offset="95.4%" stop-color="#F7390A"/><stop offset="100%" stop-color="#F73100"/></linearGradient><linearGradient id="yj6nac5jud" x1="14.643%" x2="85.357%" y1="14.643%" y2="85.357%"><stop offset="0%" stop-color="#2AA4F4"/><stop offset="100%" stop-color="#007AD9"/></linearGradient><path id="02u2b9ujhe" d="M11.976 22.59l13.5-13.5-2.124-2.195-11.376 11.412-5.328-5.364-2.124 2.124 7.452 7.524zM15 .09c2.736 0 5.268.685 7.596 2.053 2.256 1.296 4.032 3.072 5.328 5.328 1.368 2.328 2.052 4.86 2.052 7.596 0 2.736-.684 5.268-2.052 7.596-1.296 2.256-3.072 4.032-5.328 5.328-2.328 1.368-4.86 2.052-7.596 2.052-2.736 0-5.268-.684-7.596-2.052-2.256-1.32-4.032-3.108-5.328-5.364C.708 20.299.024 17.779.024 15.067c0-2.712.684-5.232 2.052-7.56C3.396 5.25 5.184 3.463 7.44 2.143 9.768.775 12.288.09 15 .09z"/><path id="lrho4o3y6g" d="M11.976 22.59l13.5-13.5-2.124-2.195-11.376 11.412-5.328-5.364-2.124 2.124 7.452 7.524zM15 .09c2.736 0 5.268.685 7.596 2.053 2.256 1.296 4.032 3.072 5.328 5.328 1.368 2.328 2.052 4.86 2.052 7.596 0 2.736-.684 5.268-2.052 7.596-1.296 2.256-3.072 4.032-5.328 5.328-2.328 1.368-4.86 2.052-7.596 2.052-2.736 0-5.268-.684-7.596-2.052-2.256-1.32-4.032-3.108-5.328-5.364C.708 20.299.024 17.779.024 15.067c0-2.712.684-5.232 2.052-7.56C3.396 5.25 5.184 3.463 7.44 2.143 9.768.775 12.288.09 15 .09z"/></defs><g fill="none" fill-rule="evenodd"><g><g><g><g fill-rule="nonzero"><g><path fill="#01579B" d="M36 0C17.112 0 1.8 15.312 1.8 34.2c0 18.888 15.312 34.2 34.2 34.2 18.888 0 34.2-15.312 34.2-34.2C70.2 15.312 54.888 0 36 0z" transform="translate(-883 -326) translate(240 139) translate(643 187) translate(0 122.4) translate(0 1.8)"/><path fill="#0277BD" d="M54 28.44c0-1.08 0-5.22-2.7-8.46-.18-.18-.36-.54-.36-.72-.18-.18-.18-.36-.36-.72l-.36-.54-.36-.54c-.36-.54-.54-.9-.54-.9-.72-1.08-.9-2.52-.18-3.78.18-.36.54-.72.72-1.08-.18-.18-.36-.36-.54-.36h-.18c-.54-.36-1.08-.72-1.44-1.08l-1.26-.9c-.9-.54-1.44-.72-1.44-.9-1.26-.72-1.98-1.98-1.8-3.42.18-1.44 1.08-2.7 2.52-3.06.18 0 .54-.18.9-.18l-.18-.18C43.2.54 39.6 0 36 0 22.68 0 10.98 7.74 5.4 18.9v.9c0 12.96 11.34 23.4 25.2 23.4 10.62 0 19.62-6.12 23.4-14.76z" transform="translate(-883 -326) translate(240 139) translate(643 187) translate(0 122.4) translate(0 1.8)"/><path fill="#FFF176" d="M46.8 5.4s.54-.18 1.62-.18h1.8c.72 0 1.44.18 2.34.36.9.18 1.8.54 2.7.9.9.36 1.98.9 2.88 1.62.9.54 1.8 1.44 2.7 2.16.9.72 1.62 1.8 2.34 2.7.54 1.08 1.26 1.98 1.8 3.06s.9 2.16 1.26 3.24.54 2.16.72 3.06c.18 1.08.18 1.98.18 2.7v1.26c0 .36 0 .72-.18 1.08 0 .72-.18 1.26-.18 1.8 0 .9-.18 1.44-.18 1.44s-.36-.54-.72-1.44c-.18-.36-.54-.9-.72-1.62-.18-.54-.54-1.26-.9-1.98s-.72-1.44-1.08-2.34c-.36-.72-.9-1.62-1.26-2.52-.36-.9-.9-1.62-1.44-2.52-.54-.9-1.08-1.62-1.62-2.34-.54-.72-1.08-1.62-1.8-2.16-.72-.72-1.26-1.44-1.98-1.98-.54-.72-1.26-1.26-1.98-1.8s-1.26-1.08-1.98-1.44c-.54-.54-1.26-.9-1.8-1.26s-1.08-.72-1.44-.9c-.54-.54-1.08-.9-1.08-.9z" transform="translate(-883 -326) translate(240 139) translate(643 187) translate(0 122.4) translate(0 1.8)"/><path fill="#FDD835" d="M70.38 22.68c-.54-3.96-2.16-7.56-3.96-10.08-.9-1.26-1.8-2.16-2.34-2.7C63.36 9.36 63 9 63 9s0 .54.18 1.44c.18.9.18 1.98.36 3.42.18.72.18 1.44.36 2.16-.72-1.08-1.62-2.16-2.52-2.88-.9-.9-1.98-1.44-2.52-1.8-.9-.36-1.26-.54-1.26-.54s.18.36.36 1.08c.18.72.54 1.62.9 2.88.36 1.26.9 2.88 1.44 4.5-1.08-1.26-2.16-2.34-3.24-3.06-1.26-.72-2.34-1.26-3.24-1.44-1.08-.36-1.62-.36-1.62-.36s.36.36.72 1.08c.18.36.54.72.72 1.26.36.54.54 1.08.9 1.62.54 1.08 1.26 2.34 1.8 3.78.36.72.54 1.44.9 2.16.18.72.72 1.44.9 2.34.36.72.54 1.44.9 2.34.18.72.54 1.44.72 2.34.18.72.54 1.44.72 2.16.18.72.36 1.44.72 1.98.54 1.26.9 2.34 1.26 3.06L63 39.6s.18-.36.54-1.26c.18-.36.36-.9.36-1.44.18-.54.36-1.26.36-1.98 0-.54.18-1.08.18-1.62.18.54.36.9.36.9l.54-1.08c.18-.36.36-.72.54-1.26v-.18c0 .36 0 .9.18 1.26 0 .72.18 1.26.18 1.8v1.62c0 .9.18 1.44.18 1.44s.36-.36.9-1.08c.18-.36.54-.72.9-1.26s.54-1.08.9-1.8.54-1.44.72-2.34l.54-2.7c.18-.9.18-1.98.18-2.88.18-1.08 0-2.16-.18-3.06z" transform="translate(-883 -326) translate(240 139) translate(643 187) translate(0 122.4) translate(0 1.8)"/><path fill="#FFB300" d="M72.18 26.64c0-.9-.18-1.44-.18-1.44s-.36.54-.9 1.26c-.54.9-1.08 1.98-1.8 3.42-.54 1.26-1.26 2.7-1.98 4.14 0-1.44 0-2.7-.18-3.96-.18-1.08-.36-1.98-.54-2.88-.36-.9-.54-1.8-.9-2.52-.54-1.62-1.26-2.7-1.8-3.6-.54-.9-.9-1.26-.9-1.26s-.18 2.16-.18 5.4c0 1.62-.18 3.24-.36 5.22 0 .9-.18 1.8-.18 2.88 0 .9-.18 1.98-.36 2.88v.72c-.18-1.62-.72-3.24-1.44-4.32-.54-1.26-1.26-2.16-1.8-2.7-.72-.9-1.08-1.08-1.08-1.08v1.26c0 .72 0 1.8-.18 3.06-.18 2.34-.54 5.4-.9 8.28-.18.72-.36 1.44-.36 2.16-.18.72-.36 1.44-.36 2.16-.18.72-.36 1.44-.54 1.98-.18.72-.36 1.26-.36 1.8-.18.54-.18 1.26-.36 1.62-.18.54-.18.9-.36 1.44C54 53.46 54 54 54 54s.36-.18 1.08-.72c.72-.54 1.62-1.08 2.52-2.16.36-.54.9-1.08 1.44-1.8.36-.72.9-1.26 1.26-1.98 0 .54-.18 1.08-.18 1.62-.18.54-.18 1.26-.36 1.62-.36 1.08-.36 1.62-.36 1.62.18-.18.72 0 1.26.18 0 .18-.18.36-.18.36l-.54 1.62c-.36.9-.54 1.44-.54 1.44s.54-.18 1.26-.72c.36-.36.9-.54 1.44-1.08.54-.36 1.08-.9 1.62-1.62.54-.54 1.08-1.26 1.8-1.98.54-.72 1.08-1.62 1.62-2.52 1.08-1.8 1.98-3.78 2.7-5.76.72-1.98 1.44-4.14 1.8-6.12.36-1.98.54-3.78.72-5.4 0-1.62 0-2.88-.18-3.96z" transform="translate(-883 -326) translate(240 139) translate(643 187) translate(0 122.4) translate(0 1.8)"/><path fill="#FF9800" d="M67.32 45.72c-.72.36-1.44 1.08-2.52 1.8-1.44 1.08-3.06 2.52-4.68 4.14.18-.54.54-1.08.72-1.62.54-1.62.72-3.06.9-4.32 0-1.26 0-2.34-.18-3.06-.18-.9-.36-1.26-.36-1.26s-.36.36-.72.9-1.08 1.44-1.8 2.34c-.72.9-1.44 2.16-2.16 3.24-.18.18-.18.36-.36.54.36-1.08.36-2.34.36-3.42 0-1.44-.36-2.88-.72-3.96s-.9-1.98-1.26-2.52c-.18-.36-.54-.72-.54-.72s-.18.36-.36 1.08c-.18.54-.54 1.44-.9 2.52-.36.9-.54 1.98-.9 3.24-.18.54-.36 1.08-.54 1.8-.18.54-.36 1.08-.54 1.44-3.42 3.42-7.56 4.32-11.52 4.5-2.16 0-4.14-.36-5.94-.9-2.7-.9-5.22-2.52-7.56-4.68 3.42.36 6.66-.36 9.36-1.62l4.5-2.88c.54-.18 1.08-.18 1.62 0 1.08-.18 1.44-.72 1.08-1.8-.54-.72-1.44-1.44-2.34-1.98-2.34-1.26-4.68-1.08-7.2.54-2.34 1.26-4.5 1.08-6.84-.18-5.58-2.88-3.42-10.26 2.52-6.48.36-1.8-.18-3.78-1.26-5.76-5.22-9.54.72-17.28 2.7-18.54-3.6.36-6.84 1.98-9.72 4.68C1.62 10.62 0 28.62 0 28.8l2.16-1.98C1.44 28.8.9 30.78.72 32.94 0 39.96 1.98 46.8 6.66 53.64 13.86 62.82 25.2 68.4 36 68.4c12.24 0 20.16-4.5 25.38-10.26l1.08-1.08c1.08-1.26 2.16-2.52 3.06-3.96.9-1.26 1.44-2.7 1.98-3.96.36-1.26.72-2.34.9-3.06V45s-.36.18-1.08.72z" transform="translate(-883 -326) translate(240 139) translate(643 187) translate(0 122.4) translate(0 1.8)"/><path fill="#EF6C00" d="M14.4 41.4c-.36-12.6 7.74-11.52 11.88-10.08-2.88-.54-4.14 2.16-2.88 4.68-.54 0-6.12-.54-9 5.4zm11.34 5.22c3.42.36 6.66-.36 9.36-1.62l4.5-2.88c.36-.18.9-.18 1.26 0-5.22-3.06-10.8 3.42-23.04 1.44 3.06 2.34 7.92 3.06 7.92 3.06zm-.36-29.52c-.36 2.7.18 5.94 1.98 9.36 2.52-1.44 5.04-3.06 5.04-3.06s3.6-3.6 0-3.6c-3.42 0-5.76-1.44-7.02-2.7zm-14.04-3.78C9.72 11.88 7.2 9 7.2 5.4c0 0-4.32 7.02-2.7 12.6 1.62-1.98 3.96-3.6 6.84-4.68z" transform="translate(-883 -326) translate(240 139) translate(643 187) translate(0 122.4) translate(0 1.8)"/><path fill="#FFCC80" d="M27.36 26.46c2.52-1.44 5.04-3.06 5.04-3.06l.72-.72-.72-1.08h-6.84c.36 1.62.9 3.24 1.8 4.86z" transform="translate(-883 -326) translate(240 139) translate(643 187) translate(0 122.4) translate(0 1.8)"/><path fill="#5D4037" d="M32.4 19.8c-.54 0-1.08 0-1.62-.18l-.18.18s1.44 2.34 1.8 3.6c0 0 3.6-3.6 0-3.6z" transform="translate(-883 -326) translate(240 139) translate(643 187) translate(0 122.4) translate(0 1.8)"/></g></g><g fill-rule="nonzero"><g><path fill="#FFF" d="M54 36c0 9.938-8.062 18-18 18s-18-8.062-18-18 8.062-18 18-18 18 8.062 18 18z" transform="translate(-883 -326) translate(240 139) translate(643 187)"/><path fill="url(#cf1longfta)" d="M49.194 45.378L34.506 71.964C15.318 71.19 0 55.368 0 36 0 16.128 16.128 0 36 0v19.8c-8.946 0-16.2 7.254-16.2 16.2S27.054 52.2 36 52.2c5.454 0 10.26-2.682 13.194-6.822z" transform="translate(-883 -326) translate(240 139) translate(643 187)"/><path fill="url(#nrp6rcqk0b)" d="M72 36c0 19.89-16.11 36-36 36h-1.512l14.706-26.622C51.084 42.732 52.2 39.492 52.2 36c0-8.946-7.254-16.2-16.2-16.2V0c14.058 0 26.19 8.064 32.13 19.8C70.578 24.678 72 30.168 72 36z" transform="translate(-883 -326) translate(240 139) translate(643 187)"/><path fill="url(#6dig9912pc)" d="M68.112 19.8H36c-8.946 0-16.2 7.254-16.2 16.2 0 2.682.648 5.202 1.818 7.434H21.6L5.688 16.668h-.036C12.024 6.642 23.238 0 36 0c14.04 0 26.19 8.064 32.112 19.8z" transform="translate(-883 -326) translate(240 139) translate(643 187)"/><path fill="url(#yj6nac5jud)" d="M48.6 36c0 6.96-5.64 12.6-12.6 12.6S23.4 42.96 23.4 36 29.04 23.4 36 23.4 48.6 29.04 48.6 36z" transform="translate(-883 -326) translate(240 139) translate(643 187)"/></g></g><g><g transform="translate(-883 -326) translate(240 139) translate(643 187) translate(56.4 164.4) translate(3 2.333)"><mask id="f1hvugmu2f" fill="#fff"><use xlink:href="#02u2b9ujhe"/></mask><g fill="#05E6AF" mask="url(#f1hvugmu2f)" opacity=".99"><path d="M0 0H36V36H0z" transform="translate(-3 -2.333)"/></g></g></g><g><g transform="translate(-883 -326) translate(240 139) translate(643 187) translate(56.4 42) translate(3 2.333)"><mask id="7y32h8fzhh" fill="#fff"><use xlink:href="#lrho4o3y6g"/></mask><g fill="#05E6AF" mask="url(#7y32h8fzhh)" opacity=".99"><path d="M0 0H36V36H0z" transform="translate(-3 -2.333)"/></g></g></g></g></g></g></g></svg>