<svg xmlns="http://www.w3.org/2000/svg" width="146" height="28" viewBox="0 0 146 28"><g fill="none" fill-rule="evenodd"><g fill-rule="nonzero"><g><g><g><g><path fill="#161616" d="M128.289 13.685c-.755-.51-1.587-.873-2.374-1.327-.51-.294-1.054-.555-1.497-.93-.755-.634-.6-1.881.188-2.426 1.132-.77 3.006-.34 3.205 1.236 0 .034.034.057.067.057h1.709c.044 0 .077-.034.066-.08-.089-1.088-.5-1.995-1.253-2.573-.722-.556-1.542-.85-2.42-.85-4.513 0-4.924 4.886-2.495 6.428.278.182 2.662 1.406 3.506 1.939.843.533 1.11 1.508.743 2.279-.333.703-1.198 1.19-2.063 1.134-.943-.057-1.675-.578-1.93-1.395-.045-.147-.067-.43-.067-.555 0-.034-.033-.068-.067-.068h-1.852c-.033 0-.066.034-.066.068 0 1.372.333 2.131 1.242 2.823.854.657 1.785.93 2.751.93 2.53 0 3.838-1.463 4.103-2.982.234-1.486-.198-2.824-1.496-3.708zM47.861 7.041H46.142c-.033 0-.055.023-.066.045l-1.52 5.125c-.022.068-.11.068-.133 0l-1.52-5.125c-.01-.034-.033-.045-.066-.045H40.008c-.033 0-.066.034-.066.068v13.084c0 .034.033.068.066.068h1.853c.033 0 .066-.034.066-.068V10.25c0-.08.111-.091.133-.023l1.531 5.159.111.363c.011.034.033.045.067.045h1.42c.033 0 .055-.023.066-.045l.11-.363 1.531-5.159c.023-.08.134-.057.134.023v9.943c0 .034.033.068.066.068h1.853c.033 0 .066-.034.066-.068V7.11c0-.034-.033-.068-.066-.068H47.86zM99.926 7.041c-.033 0-.055.023-.066.045l-1.52 5.125c-.021.068-.11.068-.132 0l-1.52-5.125c-.011-.034-.033-.045-.067-.045h-2.817c-.034 0-.067.034-.067.068v13.084c0 .034.033.068.067.068h1.852c.034 0 .067-.034.067-.068V10.25c0-.08.111-.091.133-.023l1.53 5.159.111.363c.011.034.034.045.067.045h1.42c.033 0 .055-.023.066-.045l.111-.363 1.531-5.159c.022-.08.133-.057.133.023v9.943c0 .034.034.068.067.068h1.852c.033 0 .066-.034.066-.068V7.11c0-.034-.033-.068-.066-.068h-2.818zM76.035 7.041h-8.752c-.033 0-.066.034-.066.068v1.633c0 .034.033.068.066.068h3.383v11.383c0 .034.033.068.067.068h1.852c.033 0 .067-.034.067-.068V8.81h3.383c.033 0 .066-.034.066-.068V7.109c0-.034-.022-.068-.066-.068zM86.96 20.261h1.686c.044 0 .078-.045.067-.09L85.23 7.04c-.011-.034-.033-.045-.067-.045h-2.418c-.033 0-.055.022-.066.045l-3.483 13.13c-.011.045.022.09.067.09h1.685c.034 0 .056-.023.067-.045l1.01-3.821c.01-.034.033-.046.066-.046h3.727c.033 0 .056.023.067.046l1.009 3.82c.011.023.044.046.067.046zm-4.425-5.782l1.353-5.114c.022-.068.11-.068.133 0l1.353 5.114c.011.045-.022.09-.066.09H82.6c-.044 0-.077-.045-.066-.09zM115.71 20.261h1.686c.044 0 .078-.045.067-.09L113.98 7.04c-.011-.034-.033-.045-.067-.045h-2.418c-.033 0-.055.022-.066.045l-3.483 13.13c-.011.045.022.09.067.09h1.686c.033 0 .055-.023.067-.045l1.009-3.821c.01-.034.033-.046.066-.046h3.727c.033 0 .056.023.067.046l1.009 3.82c.011.023.033.046.067.046zm-4.426-5.782l1.354-5.114c.022-.068.11-.068.133 0l1.353 5.114c.011.045-.022.09-.066.09h-2.707c-.044 0-.078-.045-.067-.09zM56.535 18.322v-4.059c0-.034.034-.068.067-.068h4.936c.033 0 .066-.034.066-.068v-1.632c0-.034-.033-.068-.066-.068h-4.936c-.033 0-.067-.034-.067-.069V8.89c0-.034.034-.068.067-.068h5.612c.034 0 .067-.034.067-.068V7.12c0-.034-.033-.068-.067-.068H54.616c-.033 0-.066.034-.066.068v13.073c0 .034.033.068.066.068H62.447c.034 0 .067-.034.067-.068V18.47c0-.034-.033-.068-.067-.068h-5.856c-.034-.012-.056-.034-.056-.08zM145.215 20.148l-6.412-6.77c-.022-.022-.022-.067 0-.09l5.769-6.122c.044-.046.01-.114-.045-.114h-2.362c-.022 0-.034.012-.045.023l-4.891 5.193c-.044.045-.111.011-.111-.046V7.12c0-.034-.033-.068-.067-.068H135.2c-.034 0-.067.034-.067.068v13.084c0 .034.033.069.067.069h1.852c.034 0 .067-.035.067-.069v-5.76c0-.056.078-.09.11-.045l5.546 5.85c.011.012.034.024.045.024h2.362c.045-.012.078-.091.034-.125z" transform="translate(-534 -302) translate(95 7) translate(145 132) translate(106 155) translate(188 8)"/><path fill="#E17726" stroke="#E17726" stroke-linecap="round" stroke-linejoin="round" stroke-width=".25" d="M27.286 0L16.072 8.504 18.157 3.492z" transform="translate(-534 -302) translate(95 7) translate(145 132) translate(106 155) translate(188 8)"/><path fill="#E27625" stroke="#E27625" stroke-linecap="round" stroke-linejoin="round" stroke-width=".25" d="M1.42 0L12.534 8.583 10.548 3.492zM23.248 19.717L20.265 24.388 26.654 26.191 28.484 19.819zM.233 19.819L2.052 26.191 8.43 24.388 5.457 19.717z" transform="translate(-534 -302) translate(95 7) translate(145 132) translate(106 155) translate(188 8)"/><path fill="#E27625" stroke="#E27625" stroke-linecap="round" stroke-linejoin="round" stroke-width=".25" d="M8.086 11.826L6.311 14.569 12.634 14.864 12.423 7.891zM20.62 11.826L16.216 7.812 16.072 14.864 22.394 14.569zM8.43 24.388L12.256 22.495 8.962 19.864zM16.449 22.495L20.265 24.388 19.743 19.864z" transform="translate(-534 -302) translate(95 7) translate(145 132) translate(106 155) translate(188 8)"/><path fill="#D5BFB2" stroke="#D5BFB2" stroke-linecap="round" stroke-linejoin="round" stroke-width=".25" d="M20.265 24.388L16.449 22.495 16.76 25.034 16.726 26.112zM8.43 24.388L11.979 26.112 11.957 25.034 12.256 22.495z" transform="translate(-534 -302) translate(95 7) translate(145 132) translate(106 155) translate(188 8)"/><path fill="#233447" stroke="#233447" stroke-linecap="round" stroke-linejoin="round" stroke-width=".25" d="M12.046 18.186L8.873 17.234 11.114 16.179zM16.66 18.186L17.592 16.179 19.843 17.234z" transform="translate(-534 -302) translate(95 7) translate(145 132) translate(106 155) translate(188 8)"/><path fill="#CC6228" stroke="#CC6228" stroke-linecap="round" stroke-linejoin="round" stroke-width=".25" d="M8.43 24.388L8.984 19.717 5.457 19.819zM19.721 19.717L20.265 24.388 23.248 19.819zM22.394 14.569L16.072 14.864 16.66 18.186 17.592 16.179 19.843 17.234zM8.873 17.234L11.114 16.179 12.046 18.186 12.634 14.864 6.311 14.569z" transform="translate(-534 -302) translate(95 7) translate(145 132) translate(106 155) translate(188 8)"/><path fill="#E27525" stroke="#E27525" stroke-linecap="round" stroke-linejoin="round" stroke-width=".25" d="M6.311 14.569L8.962 19.864 8.874 17.234zM19.843 17.234L19.744 19.864 22.395 14.569zM12.634 14.864L12.046 18.186 12.789 22.109 12.955 16.939zM16.072 14.864L15.762 16.928 15.917 22.109 16.66 18.186z" transform="translate(-534 -302) translate(95 7) translate(145 132) translate(106 155) translate(188 8)"/><path fill="#F5841F" stroke="#F5841F" stroke-linecap="round" stroke-linejoin="round" stroke-width=".25" d="M16.66 18.186L15.917 22.109 16.449 22.495 19.744 19.864 19.843 17.234zM8.873 17.234L8.962 19.864 12.256 22.495 12.789 22.109 12.046 18.186z" transform="translate(-534 -302) translate(95 7) translate(145 132) translate(106 155) translate(188 8)"/><path fill="#C0AC9D" stroke="#C0AC9D" stroke-linecap="round" stroke-linejoin="round" stroke-width=".25" d="M16.727 26.111L16.76 25.034 16.471 24.785 12.234 24.785 11.957 25.034 11.979 26.111 8.43 24.388 9.672 25.431 12.19 27.211 16.505 27.211 19.034 25.431 20.265 24.388z" transform="translate(-534 -302) translate(95 7) translate(145 132) translate(106 155) translate(188 8)"/><path fill="#161616" stroke="#161616" stroke-linecap="round" stroke-linejoin="round" stroke-width=".25" d="M16.449 22.495L15.917 22.109 12.789 22.109 12.256 22.495 11.957 25.034 12.234 24.785 16.471 24.785 16.76 25.034z" transform="translate(-534 -302) translate(95 7) translate(145 132) translate(106 155) translate(188 8)"/><path fill="#763E1A" stroke="#763E1A" stroke-linecap="round" stroke-linejoin="round" stroke-width=".25" d="M27.763 9.059L28.706 4.365 27.286 0 16.449 8.22 20.62 11.826 26.51 13.583 27.807 12.03 27.242 11.61 28.14 10.771 27.452 10.227 28.351 9.524zM0 4.365L.954 9.059.344 9.524 1.253 10.227.566 10.771 1.464 11.61.898 12.03 2.196 13.583 8.086 11.826 12.256 8.22 1.42 0z" transform="translate(-534 -302) translate(95 7) translate(145 132) translate(106 155) translate(188 8)"/><path fill="#F5841F" stroke="#F5841F" stroke-linecap="round" stroke-linejoin="round" stroke-width=".25" d="M26.51 13.583L20.62 11.826 22.395 14.569 19.744 19.864 23.249 19.819 28.484 19.819zM8.086 11.826L2.196 13.583.233 19.819 5.457 19.819 8.962 19.864 6.311 14.569zM16.072 14.864L16.449 8.22 18.157 3.492 10.548 3.492 12.256 8.22 12.634 14.864 12.778 16.95 12.789 22.109 15.917 22.109 15.928 16.95z" transform="translate(-534 -302) translate(95 7) translate(145 132) translate(106 155) translate(188 8)"/></g></g></g></g></g></g></svg>