<svg xmlns="http://www.w3.org/2000/svg" xmlns:xlink="http://www.w3.org/1999/xlink" width="24" height="24" viewBox="0 0 24 24"><defs><path id="5qyqws2jga" d="M0 15.98L15.98 15.98 15.98 0 0 0z"/></defs><g fill="none" fill-rule="evenodd"><g><g><g><g><g><g><g transform="translate(-222 -436) translate(95 7) translate(115 184) translate(0 145) translate(0 12) translate(12 88) translate(4 4)"><path fill="#0F2534" d="M13.388 0H6.086v9.855h9.855V2.552C15.94 1.139 14.8 0 13.388 0M3.809 0H2.552C1.139 0 .001 1.14.001 2.552v1.256h3.808V0z"/><mask id="ietclcvx3b" fill="#fff"><use xlink:href="#5qyqws2jga"/></mask><path fill="#0F2534" d="M0 9.894L3.808 9.894 3.808 6.086 0 6.086zM12.171 15.94h1.257c1.414 0 2.551-1.139 2.551-2.552v-1.216h-3.808v3.769zM6.086 15.98L9.894 15.98 9.894 12.172 6.086 12.172zM0 12.171v1.257c0 1.414 1.14 2.551 2.552 2.551h1.256v-3.808H0z" mask="url(#ietclcvx3b)"/></g></g></g></g></g></g></g></g></svg>