<svg xmlns="http://www.w3.org/2000/svg" width="24" height="24" viewBox="0 0 24 24">
    <g fill="none" fill-rule="evenodd">
        <g fill-rule="nonzero">
            <g>
                <g>
                    <g>
                        <g>
                            <g>
                                <g>
                                    <path fill="#133444" d="M0.21 12.214L0.717 11.991 7.019 9.25 13.829 12.214 11.272 17.499 5.016 18.384 0.312 13.305z" transform="translate(-222 -356) translate(95 7) translate(115 184) translate(0 145) translate(0 12) translate(12 8) translate(5.007 1.033)"/>
                                    <path fill="#C42370" d="M12.413 8.952c-1.123-1.356-2.72-2.237-4.462-2.47l-.112-.014c-.545-.065-1.095-.065-1.64 0l-.111.014c-1.747.233-3.34 1.114-4.462 2.47l-.285.47-.47.784-.345.573c-.004.014-.014.033-.018.047l-.005.009.764.452 4.82 2.857.932.55V7.866l-.931.424V7.27l.931-.424.932.424 4.746 2.158-.284-.476z" transform="translate(-222 -356) translate(95 7) translate(115 184) translate(0 145) translate(0 12) translate(12 8) translate(5.007 1.033)"/>
                                    <path fill="#1C4D6B" d="M14.038 13.91c0 2.275-1.08 4.4-2.752 5.77-.657.54-1.412.96-2.217 1.23-.662.22-1.351.331-2.045.331-3.88 0-7.024-3.448-7.024-7.33 0-.574.07-1.142.205-1.701l6.814 4.035 6.81-4.03c.14.554.21 1.127.21 1.696z" transform="translate(-222 -356) translate(95 7) translate(115 184) translate(0 145) translate(0 12) translate(12 8) translate(5.007 1.033)"/>
                                    <path fill="#000" d="M6.199 6.473L7.019 6.846 6.088 7.27 6.088 6.422zM6.088 8.29L7.019 7.866 7.019 14.698 6.088 14.144z" transform="translate(-222 -356) translate(95 7) translate(115 184) translate(0 145) translate(0 12) translate(12 8) translate(5.007 1.033)"/>
                                    <path fill="#1D4259" d="M7.019 7.866L7.019 14.698 13.545 10.835z" transform="translate(-222 -356) translate(95 7) translate(115 184) translate(0 145) translate(0 12) translate(12 8) translate(5.007 1.033)"/>
                                    <path fill="#4B6B9A" d="M7.019 0L7.019 7.866 13.545 10.835z" transform="translate(-222 -356) translate(95 7) translate(115 184) translate(0 145) translate(0 12) translate(12 8) translate(5.007 1.033)"/>
                                    <path fill="#343535" d="M7.02 7.866v6.828l-.932-.55-5.59-3.309-.009-.005.014-.004.019-.047.815-1.356 4.75-2.153v1.025l.932-.429z" transform="translate(-222 -356) translate(95 7) translate(115 184) translate(0 145) translate(0 12) translate(12 8) translate(5.007 1.033)"/>
                                    <path fill="#3E5578" d="M7.019 7.866L7.019 14.698 6.088 14.144 0.498 10.84 0.494 10.835 0.503 10.83 6.088 8.29z" transform="translate(-222 -356) translate(95 7) translate(115 184) translate(0 145) translate(0 12) translate(12 8) translate(5.007 1.033)"/>
                                    <path fill="#6DB2D8" d="M7.019 0L7.019 7.866 0.494 10.835z" transform="translate(-222 -356) translate(95 7) translate(115 184) translate(0 145) translate(0 12) translate(12 8) translate(5.007 1.033)"/>
                                    <path fill="#335F8A" d="M4.378 20.682c.098.042.196.084.294.121-.098-.037-.196-.074-.294-.121zM4.672 20.803c.097.037.2.075.302.107-.102-.032-.205-.065-.302-.107zM5.23 20.994c.08.039.154.07.233.1-.074-.03-.153-.07-.232-.1z" transform="translate(-222 -356) translate(95 7) translate(115 184) translate(0 145) translate(0 12) translate(12 8) translate(5.007 1.033)"/>
                                    <path fill="#6DB2D8" d="M.21 12.214l6.81 4.031c-.094.616-.257 1.212-.49 1.79-.545 1.319-1.644 2.712-3.777 1.65C1.076 18.315 0 16.185 0 13.91c0-.569.07-1.142.21-1.697z" transform="translate(-222 -356) translate(95 7) translate(115 184) translate(0 145) translate(0 12) translate(12 8) translate(5.007 1.033)"/>
                                    <path fill="#529BBA" d="M11.28 19.685l-.018.014-.107.084-.01.009c-.036.032-.078.06-.116.088-.042.033-.083.066-.13.094-.047.028-.089.06-.13.093-.042.032-.08.051-.117.079l-.023.014c-.042.028-.084.051-.121.08-.005.004-.01.004-.014.009-.042.028-.084.05-.126.074-.042.023-.093.056-.14.08-.046.027-.093.05-.14.074l-.004.005-.14.07-.144.07c-.051.023-.098.046-.145.065-.097.042-.195.083-.293.12-.098.038-.2.075-.303.108-.042.014-.079.028-.12.037l-.136.042c-.08.023-.154.042-.233.06-.028.01-.06.015-.088.024l-.052.01-.125.027c-.042.01-.075.014-.117.024-.042.009-.07.014-.107.018-.037.005-.08.014-.116.019-.019.005-.038.005-.056.01l-.089.009-.051.004c-.033.005-.065.01-.098.01-.042.004-.079.009-.12.009-.033 0-.061.005-.094.01-.033 0-.056.004-.084.004h-.005c-.032 0-.065.005-.093.005-.042 0-.088.004-.13.004h-.27c-.047 0-.089 0-.13-.004-.033 0-.066-.005-.098-.005h-.005c-.028 0-.056-.005-.084-.005-.028 0-.06-.004-.093-.01-.042-.004-.08-.004-.121-.008-.033-.005-.065-.005-.098-.01l-.047-.004c-.028-.005-.06-.01-.088-.01-.019 0-.037-.004-.056-.01-.037-.004-.08-.008-.116-.018-.038-.004-.07-.014-.108-.018-.037-.005-.074-.014-.116-.024l-.126-.028-.051-.009c-.028-.005-.06-.014-.089-.023-.079-.019-.153-.042-.232-.06l-.14-.043c-.042-.014-.08-.023-.121-.037-.103-.033-.2-.07-.303-.107-.102-.038-.2-.08-.293-.121-.047-.024-.098-.042-.145-.066-.046-.023-.098-.046-.144-.07l-.14-.07-.005-.004c-.046-.023-.093-.051-.14-.075-.046-.023-.092-.05-.139-.079-.047-.028-.084-.051-.126-.074l-.014-.01c-.042-.023-.084-.051-.12-.079l-.024-.014c-.037-.023-.08-.051-.117-.08-.037-.027-.088-.06-.13-.092-.042-.033-.084-.061-.13-.094l-.117-.088-.01-.01-.106-.083-.019-.014c2.129 1.062 3.233-.336 3.777-1.65.233-.573.396-1.174.49-1.79.093.616.256 1.212.489 1.79.563 1.314 1.662 2.708 3.79 1.65z" transform="translate(-222 -356) translate(95 7) translate(115 184) translate(0 145) translate(0 12) translate(12 8) translate(5.007 1.033)"/>
                                    <path fill="#335F8A" d="M8.57 21.094c.08-.03.159-.07.233-.1-.074.039-.154.07-.233.1zM9.064 20.915c.102-.033.2-.07.303-.107-.098.037-.2.07-.303.107zM9.367 20.803c.097-.037.195-.08.293-.121-.093.047-.196.084-.293.121z" transform="translate(-222 -356) translate(95 7) translate(115 184) translate(0 145) translate(0 12) translate(12 8) translate(5.007 1.033)"/>
                                    <path fill="#4B6B9A" d="M14.038 13.91c0 2.275-1.08 4.4-2.752 5.775-2.129 1.062-3.233-.336-3.778-1.65-.233-.573-.396-1.174-.489-1.79l6.81-4.03c.14.554.21 1.127.21 1.696z" transform="translate(-222 -356) translate(95 7) translate(115 184) translate(0 145) translate(0 12) translate(12 8) translate(5.007 1.033)"/>
                                </g>
                            </g>
                        </g>
                    </g>
                </g>
            </g>
        </g>
    </g>
</svg>
