<svg xmlns="http://www.w3.org/2000/svg" xmlns:xlink="http://www.w3.org/1999/xlink" width="24" height="24" viewBox="0 0 24 24">
    <defs>
        <path id="p77ok2v1ba" d="M0 0L12.961 0 12.961 18.838 0 18.838z"/>
    </defs>
    <g fill="none" fill-rule="evenodd">
        <g>
            <g>
                <g>
                    <g>
                        <g>
                            <g>
                                <g transform="translate(-222 -476) translate(95 7) translate(115 184) translate(0 145) translate(0 12) translate(12 128) translate(5 3)">
                                    <mask id="oags0f8qfb" fill="#fff">
                                        <use xlink:href="#p77ok2v1ba"/>
                                    </mask>
                                    <path fill="#1D1D1B" d="M10.352 14.149L6.48 15.954l-3.872-1.805V8.14h7.744v6.009zm-6.104-9.77c0-1.118 1.002-2.027 2.233-2.027 1.23 0 2.232.91 2.232 2.028v1.407H4.248V4.38zm6.817 1.408V4.38C11.065 1.965 9.008 0 6.48 0 3.953 0 1.896 1.965 1.896 4.38v1.407H0v10.03h.013l6.467 3.021 6.467-3.021h.014V5.787h-1.896z" mask="url(#oags0f8qfb)"/>
                                </g>
                            </g>
                        </g>
                    </g>
                </g>
            </g>
        </g>
    </g>
</svg>
